<?xml version="1.0" encoding="UTF-8"?>
<svg width="48" height="48" viewBox="0 0 48 48" xmlns="http://www.w3.org/2000/svg">
  <!-- Icona Chi Siamo - Figure umane che si tengono per mano in stile Keith Haring -->
  <defs>
    <style>
      .icon-line { fill: none; stroke: #8b4513; stroke-width: 3; stroke-linecap: round; stroke-linejoin: round; }
      .icon-fill { fill: #8b4513; }
    </style>
  </defs>
  
  <!-- Prima figura -->
  <circle cx="12" cy="12" r="4" class="icon-line"/>
  <path d="M12 16 L12 28 M8 20 L16 20 M12 28 L8 36 M12 28 L16 36" class="icon-line"/>
  
  <!-- Seconda figura -->
  <circle cx="36" cy="12" r="4" class="icon-line"/>
  <path d="M36 16 L36 28 M32 20 L40 20 M36 28 L32 36 M36 28 L40 36" class="icon-line"/>
  
  <!-- Connessione tra le figure -->
  <path d="M16 20 Q24 16 32 20" class="icon-line"/>
  
  <!-- Cuore al centro -->
  <path d="M24 22 C20 18 16 22 24 30 C32 22 28 18 24 22 Z" class="icon-fill"/>
</svg>
