<?xml version="1.0" encoding="UTF-8"?>
<svg width="48" height="48" viewBox="0 0 48 48" xmlns="http://www.w3.org/2000/svg">
  <!-- Icona Home - Casa con cuore e figure accoglienti -->
  <defs>
    <style>
      .icon-line { fill: none; stroke: #8b4513; stroke-width: 3; stroke-linecap: round; stroke-linejoin: round; }
      .icon-fill { fill: #8b4513; }
    </style>
  </defs>
  
  <!-- Casa principale -->
  <path d="M8 28 L24 12 L40 28" class="icon-line"/>
  <rect x="12" y="28" width="24" height="16" class="icon-line"/>
  <rect x="20" y="34" width="8" height="10" class="icon-line"/>
  <rect x="28" y="30" width="6" height="6" class="icon-line"/>
  
  <!-- Grande cuore al centro -->
  <path d="M24 20 C20 16 16 20 24 30 C32 20 28 16 24 20 Z" class="icon-fill"/>
  
  <!-- Figure accoglienti ai lati -->
  <circle cx="6" cy="18" r="2" class="icon-line"/>
  <path d="M6 20 L6 26 M4 22 L8 22" class="icon-line"/>
  
  <circle cx="42" cy="18" r="2" class="icon-line"/>
  <path d="M42 20 L42 26 M40 22 L44 22" class="icon-line"/>
  
  <!-- Braccia aperte in segno di accoglienza -->
  <path d="M2 22 Q4 18 6 22" class="icon-line"/>
  <path d="M42 22 Q44 18 46 22" class="icon-line"/>
  
  <!-- Sentiero di benvenuto -->
  <path d="M12 44 Q16 40 20 44" class="icon-line"/>
  <path d="M24 44 Q28 40 32 44" class="icon-line"/>
  
  <!-- Stelle di calore domestico -->
  <circle cx="4" cy="8" r="1" class="icon-fill"/>
  <circle cx="44" cy="8" r="1" class="icon-fill"/>
  <circle cx="24" cy="4" r="1.5" class="icon-fill"/>
  
  <!-- Camino con fumo -->
  <rect x="30" y="16" width="4" height="8" class="icon-line"/>
  <path d="M32 12 Q30 8 32 4" class="icon-line"/>
  <path d="M34 10 Q36 6 34 2" class="icon-line"/>
</svg>
