<?xml version="1.0" encoding="UTF-8"?>
<svg width="48" height="48" viewBox="0 0 48 48" xmlns="http://www.w3.org/2000/svg">
  <!-- Icona News - Giornale con figure che comunicano -->
  <defs>
    <style>
      .icon-line { fill: none; stroke: #8b4513; stroke-width: 3; stroke-linecap: round; stroke-linejoin: round; }
      .icon-fill { fill: #8b4513; }
    </style>
  </defs>
  
  <!-- Giornale aperto -->
  <rect x="6" y="16" width="36" height="26" class="icon-line"/>
  <path d="M24 16 L24 42" class="icon-line"/>
  
  <!-- Titoli e testo del giornale -->
  <rect x="8" y="18" width="14" height="3" class="icon-fill"/>
  <rect x="8" y="23" width="12" height="1" class="icon-fill"/>
  <rect x="8" y="26" width="10" height="1" class="icon-fill"/>
  <rect x="8" y="29" width="14" height="1" class="icon-fill"/>
  
  <rect x="26" y="18" width="14" height="3" class="icon-fill"/>
  <rect x="26" y="23" width="12" height="1" class="icon-fill"/>
  <rect x="26" y="26" width="10" height="1" class="icon-fill"/>
  <rect x="26" y="29" width="14" height="1" class="icon-fill"/>
  
  <!-- Figura che legge -->
  <circle cx="12" cy="6" r="3" class="icon-line"/>
  <path d="M12 9 L12 14" class="icon-line"/>
  
  <!-- Figura che annuncia -->
  <circle cx="36" cy="6" r="3" class="icon-line"/>
  <path d="M36 9 L36 14 M32 11 L40 11" class="icon-line"/>
  
  <!-- Megafono -->
  <path d="M40 8 L44 6 Q46 8 44 10 L40 8" class="icon-line"/>
  
  <!-- Onde sonore -->
  <path d="M44 4 Q46 6 44 8" class="icon-line"/>
  <path d="M45 2 Q48 6 45 10" class="icon-line"/>
  
  <!-- Frecce di diffusione -->
  <path d="M20 34 L16 38 M20 34 L24 38" class="icon-line"/>
  <path d="M28 34 L24 38 M28 34 L32 38" class="icon-line"/>
</svg>
