<?xml version="1.0" encoding="UTF-8"?>
<svg width="48" height="48" viewBox="0 0 48 48" xmlns="http://www.w3.org/2000/svg">
  <!-- Icona Attività - Figure dinamiche con energia intensa -->
  <defs>
    <style>
      .icon-line { fill: none; stroke: #8b4513; stroke-width: 3.5; stroke-linecap: round; stroke-linejoin: round; }
      .icon-fill { fill: #8b4513; }
    </style>
  </defs>
  
  <!-- Figura centrale che danza -->
  <circle cx="24" cy="8" r="4" class="icon-line"/>
  <path d="M24 12 L20 24 M18 16 L30 18 M20 24 L16 36 M20 24 L28 32" class="icon-line"/>
  
  <!-- Figura a sinistra che salta -->
  <circle cx="8" cy="6" r="3" class="icon-line"/>
  <path d="M8 9 L8 18 M5 13 L11 13 M8 18 L4 26 M8 18 L12 24" class="icon-line"/>
  
  <!-- Figura a destra che corre -->
  <circle cx="40" cy="10" r="3" class="icon-line"/>
  <path d="M40 13 L40 22 M36 17 L44 15 M40 22 L36 30 M40 22 L44 28" class="icon-line"/>
  
  <!-- Onde di energia e movimento -->
  <path d="M2 32 Q6 28 10 32 Q14 28 18 32" class="icon-line"/>
  <path d="M30 36 Q34 32 38 36 Q42 32 46 36" class="icon-line"/>
  
  <!-- Stelle esplosive di energia -->
  <g class="icon-fill">
    <path d="M12 40 L14 42 L16 40 L14 38 Z"/>
    <path d="M32 20 L34 22 L36 20 L34 18 Z"/>
    <path d="M4 16 L6 18 L8 16 L6 14 Z"/>
    <path d="M42 4 L44 6 L46 4 L44 2 Z"/>
  </g>
  
  <!-- Note musicali dinamiche -->
  <circle cx="14" cy="30" r="2" class="icon-fill"/>
  <path d="M16 30 L16 24 Q20 22 20 26" class="icon-line"/>
  <circle cx="34" cy="42" r="1.5" class="icon-fill"/>
  <path d="M35.5 42 L35.5 38" class="icon-line"/>
  
  <!-- Cuori di passione -->
  <path d="M2 44 C0 42 -2 44 2 46 C6 44 4 42 2 44 Z" class="icon-fill"/>
  <path d="M46 12 C44 10 42 12 46 14 C50 12 48 10 46 12 Z" class="icon-fill"/>
</svg>
